# Blender v2.79 (sub 0) OBJ File: 'shooter_arrows.blend'
# www.blender.org
mtllib shooter_bolt.mtl
v 0.050731 -0.118847 0.654153
v -1.085411 -0.053666 0.744340
v 0.454320 -0.054272 0.471973
v 1.347104 -0.050213 0.644373
v 0.454320 -0.054272 0.836333
v -1.085411 -0.053666 0.975659
v -0.362545 0.054273 0.453446
v 1.085411 0.053666 0.744340
v 1.085411 0.053666 0.975659
v -0.387911 0.050214 0.829256
v -1.321738 0.054272 0.647076
v 0.041042 0.118847 0.644373
v 0.294415 -0.099570 0.544154
v -0.637984 -0.102078 0.792017
v -0.353261 -0.065597 0.466391
v -1.234929 -0.065597 0.649779
v -0.637984 -0.102078 0.927982
v 0.788595 -0.102078 0.860000
v 1.032284 -0.063088 0.750001
v 0.278738 -0.102078 0.757075
v 1.032284 -0.063088 0.969999
v -0.368937 -0.059030 0.820685
v -1.391532 0.000000 0.579093
v -1.391532 0.000000 0.729212
v 0.025366 0.004059 0.422703
v -0.881678 0.000000 0.682016
v 1.426587 0.000000 0.580764
v 0.881678 0.000000 0.682016
v 0.881678 0.000000 1.037984
v 1.426587 0.000000 0.699236
v -0.881678 0.000000 1.037984
v 0.056719 0.000000 0.871450
v -1.032284 0.063088 0.750001
v 0.438763 0.062482 0.480179
v 1.285661 0.059030 0.644373
v 0.438763 0.062482 0.828126
v -1.032284 0.063088 0.969999
v -0.186965 0.102078 0.532704
v -0.788595 0.102078 0.860000
v 0.679026 0.099570 0.576391
v 0.679026 0.099570 0.703609
v -0.202641 0.099570 0.754372
v 0.050731 -0.118847 -0.654153
v -1.085411 -0.053666 -0.744340
v 0.454319 -0.054272 -0.471973
v 1.347104 -0.050213 -0.644373
v 0.454319 -0.054272 -0.836333
v -1.085411 -0.053666 -0.975659
v -0.362546 0.054273 -0.453446
v 1.085411 0.053666 -0.744340
v 1.085411 0.053666 -0.975659
v -0.387912 0.050214 -0.829256
v -1.321738 0.054272 -0.647076
v 0.041042 0.118847 -0.644373
v 0.294415 -0.099570 -0.544154
v -0.637984 -0.102078 -0.792017
v -0.353261 -0.065597 -0.466391
v -1.234929 -0.065597 -0.649779
v -0.637984 -0.102078 -0.927982
v 0.788595 -0.102078 -0.860000
v 1.032284 -0.063088 -0.750001
v 0.278738 -0.102078 -0.757075
v 1.032284 -0.063088 -0.969999
v -0.368937 -0.059030 -0.820685
v -1.391532 0.000000 -0.579093
v -1.391532 0.000000 -0.729212
v 0.025366 0.004059 -0.422703
v -0.881678 0.000000 -0.682016
v 1.426587 0.000000 -0.580764
v 0.881678 0.000000 -0.682016
v 0.881678 0.000000 -1.037984
v 1.426587 0.000000 -0.699236
v -0.881679 0.000000 -1.037983
v 0.056719 0.000000 -0.871450
v -1.032284 0.063088 -0.750000
v 0.438763 0.062482 -0.480180
v 1.285661 0.059030 -0.644373
v 0.438763 0.062482 -0.828126
v -1.032284 0.063088 -0.969999
v -0.186965 0.102078 -0.532704
v -0.788595 0.102078 -0.860000
v 0.679026 0.099570 -0.576391
v 0.679026 0.099570 -0.703609
v -0.202641 0.099570 -0.754372
vt 0.528525 0.818165
vt 0.555739 0.695048
vt 0.555739 0.910810
vt 0.298823 0.762746
vt 0.249741 0.829773
vt 0.246432 0.712259
vt 0.104872 0.769138
vt 0.160582 0.719599
vt 0.160582 0.882397
vt 0.470430 0.695048
vt 0.470430 0.840009
vt 0.450468 0.764100
vt 0.326233 0.752729
vt 0.298823 0.612463
vt 0.994627 0.088343
vt 0.901380 0.118131
vt 0.928343 0.005311
vt 0.810313 0.819187
vt 0.886788 0.766426
vt 0.791229 0.907721
vt 0.302678 0.516638
vt 0.246432 0.439919
vt 0.302678 0.346000
vt 0.878970 0.540437
vt 0.926984 0.408908
vt 0.926984 0.612940
vt 0.990106 0.319043
vt 0.990106 0.463987
vt 0.937730 0.400697
vt 0.326233 0.490101
vt 0.336789 0.393819
vt 0.498526 0.488581
vt 0.820170 0.591393
vt 0.770180 0.666802
vt 0.737703 0.579039
vt 0.772760 0.773226
vt 0.780484 0.937111
vt 0.700879 0.837546
vt 0.477684 0.005311
vt 0.569725 0.008868
vt 0.444743 0.207505
vt 0.137679 0.023388
vt 0.077865 0.265440
vt 0.056540 0.068376
vt 0.569693 0.437977
vt 0.401484 0.335993
vt 0.486393 0.319043
vt 0.580439 0.397419
vt 0.668294 0.649042
vt 0.582785 0.616854
vt 0.190210 0.528193
vt 0.091843 0.510341
vt 0.172793 0.434574
vt 0.477885 0.306301
vt 0.622542 0.101170
vt 0.622542 0.209818
vt 0.235686 0.502895
vt 0.150826 0.346000
vt 0.005373 0.908299
vt 0.022962 0.801727
vt 0.051218 0.994689
vt 0.094127 0.909397
vt 0.071145 0.396350
vt 0.005373 0.606582
vt 0.890635 0.199551
vt 0.810722 0.246310
vt 0.815851 0.150423
vt 0.880984 0.302723
vt 0.937730 0.513624
vt 0.972036 0.474609
vt 0.972036 0.616188
vt 0.723575 0.181023
vt 0.719824 0.282892
vt 0.643912 0.224079
vt 0.887046 0.005311
vt 0.005373 0.335379
vt 0.516568 0.791012
vt 0.481175 0.856984
vt 0.517779 0.695048
vt 0.094127 0.719599
vt 0.134777 0.597537
vt 0.025818 0.696381
vt 0.949831 0.927071
vt 0.875373 0.966975
vt 0.633288 0.302723
vt 0.181115 0.226755
vt 0.171327 0.806249
vt 0.221021 0.719599
vt 0.221021 0.888451
vt 0.517779 0.942652
vt 0.235686 0.708978
vt 0.580439 0.873974
vt 0.682768 0.731579
vt 0.632791 0.319043
vt 0.741682 0.338025
vt 0.876497 0.871979
vt 0.506370 0.596436
vt 0.217517 0.005311
vt 0.311573 0.066143
vt 0.249693 0.294135
vt 0.381151 0.308422
vt 0.326233 0.212452
vt 0.830916 0.463760
vt 0.891419 0.319043
vt 0.780484 0.677423
vt 0.267687 0.601842
vt 0.430541 0.932794
vt 0.820170 0.394524
vt 0.949831 0.677423
vt 0.569693 0.684427
vt 0.356156 0.574310
vt 0.391070 0.007419
vt 0.333473 0.098821
vt 0.359977 0.704941
vt 0.994627 0.177435
vt 0.929119 0.301143
vt 0.315488 0.335378
vt 0.528525 0.818165
vt 0.555739 0.910810
vt 0.555739 0.695048
vt 0.298823 0.762746
vt 0.246432 0.712259
vt 0.249741 0.829773
vt 0.104872 0.769138
vt 0.160582 0.882397
vt 0.160582 0.719599
vt 0.470430 0.695048
vt 0.450468 0.764100
vt 0.470430 0.840009
vt 0.326233 0.752729
vt 0.298823 0.612463
vt 0.994627 0.088343
vt 0.928343 0.005311
vt 0.901380 0.118131
vt 0.810313 0.819187
vt 0.791229 0.907721
vt 0.886788 0.766426
vt 0.302678 0.516638
vt 0.302678 0.346000
vt 0.246432 0.439919
vt 0.878970 0.540437
vt 0.926984 0.612940
vt 0.926984 0.408908
vt 0.990106 0.319043
vt 0.937730 0.400697
vt 0.990106 0.463987
vt 0.326233 0.490101
vt 0.498526 0.488581
vt 0.336789 0.393819
vt 0.820170 0.591393
vt 0.737703 0.579039
vt 0.770180 0.666802
vt 0.772760 0.773226
vt 0.700879 0.837546
vt 0.780484 0.937111
vt 0.477684 0.005311
vt 0.444743 0.207505
vt 0.569725 0.008868
vt 0.137679 0.023388
vt 0.056540 0.068376
vt 0.077865 0.265440
vt 0.569693 0.437977
vt 0.486393 0.319043
vt 0.401484 0.335993
vt 0.580439 0.397419
vt 0.582785 0.616854
vt 0.668294 0.649042
vt 0.190210 0.528193
vt 0.172793 0.434574
vt 0.091843 0.510341
vt 0.477885 0.306301
vt 0.622542 0.209818
vt 0.622542 0.101170
vt 0.235686 0.502895
vt 0.150826 0.346000
vt 0.005373 0.908299
vt 0.051218 0.994689
vt 0.022962 0.801727
vt 0.094127 0.909397
vt 0.071145 0.396350
vt 0.005373 0.606582
vt 0.890635 0.199551
vt 0.815851 0.150423
vt 0.810722 0.246310
vt 0.880984 0.302723
vt 0.937730 0.513624
vt 0.972036 0.616188
vt 0.972036 0.474609
vt 0.723575 0.181023
vt 0.719824 0.282892
vt 0.643912 0.224079
vt 0.887046 0.005311
vt 0.005373 0.335379
vt 0.516568 0.791012
vt 0.517779 0.695048
vt 0.481175 0.856984
vt 0.094127 0.719599
vt 0.134777 0.597537
vt 0.025818 0.696381
vt 0.875373 0.966975
vt 0.949831 0.927071
vt 0.633288 0.302723
vt 0.181115 0.226755
vt 0.171327 0.806249
vt 0.221021 0.888451
vt 0.221021 0.719599
vt 0.517779 0.942652
vt 0.235686 0.708978
vt 0.580439 0.873974
vt 0.682768 0.731579
vt 0.632791 0.319043
vt 0.741682 0.338025
vt 0.876497 0.871979
vt 0.506370 0.596436
vt 0.217517 0.005311
vt 0.311573 0.066143
vt 0.249693 0.294135
vt 0.381151 0.308422
vt 0.326233 0.212452
vt 0.830916 0.463760
vt 0.891419 0.319043
vt 0.780484 0.677423
vt 0.267687 0.601842
vt 0.430541 0.932794
vt 0.820170 0.394524
vt 0.949831 0.677423
vt 0.569693 0.684427
vt 0.356156 0.574310
vt 0.391070 0.007419
vt 0.333473 0.098821
vt 0.359977 0.704941
vt 0.994627 0.177435
vt 0.929119 0.301143
vt 0.315488 0.335378
vn -0.0983 -0.9202 -0.3789
vn 0.1365 0.9328 -0.3335
vn 0.0441 -0.9961 -0.0769
vn -0.0570 -0.9576 0.2822
vn 0.0213 -0.9932 0.1145
vn 0.4934 0.2969 -0.8176
vn 0.0138 -0.5840 -0.8116
vn -0.2319 -0.6014 -0.7645
vn -0.1297 -0.8535 0.5047
vn 0.0926 -0.8839 0.4585
vn 0.0926 -0.8839 -0.4585
vn 0.1745 0.8073 -0.5637
vn 0.5341 -0.8454 0.0000
vn -0.0856 -0.9016 0.4241
vn -0.3712 0.6974 0.6130
vn -0.1212 0.9456 -0.3019
vn 0.3773 -0.0444 -0.9250
vn 0.0724 0.9956 0.0599
vn -0.0119 0.8481 0.5297
vn -0.1214 0.9892 0.0818
vn 0.0570 0.9543 0.2935
vn 0.0966 0.8513 0.5158
vn 0.1906 0.5342 0.8236
vn 0.0113 0.9804 0.1969
vn 0.0183 0.9480 0.3177
vn -0.0368 0.9749 0.2194
vn 0.0302 0.9995 0.0000
vn 0.0667 0.9978 0.0000
vn -0.0490 -0.9873 -0.1512
vn 0.0115 0.9851 -0.1714
vn 0.0233 0.9119 -0.4097
vn 0.0090 0.8473 -0.5311
vn -0.0386 0.9967 -0.0709
vn -0.0860 0.9837 -0.1581
vn 0.2587 0.5744 -0.7766
vn -0.3508 0.8903 0.2902
vn -0.4941 -0.3003 0.8159
vn 0.1279 0.8521 0.5075
vn -0.0078 0.6017 0.7987
vn -0.0926 0.8839 0.4585
vn 0.3102 0.9288 0.2025
vn 0.3863 0.9224 0.0000
vn -0.4425 -0.0957 -0.8916
vn 0.3539 -0.3248 -0.8771
vn 0.1942 -0.7321 -0.6529
vn 0.0195 0.6275 -0.7784
vn -0.4046 0.0194 -0.9143
vn 0.1083 0.8368 -0.5366
vn 0.2466 0.6180 -0.7465
vn 0.0678 0.9216 0.3821
vn 0.0749 -0.9034 0.4222
vn -0.0117 -0.6022 0.7983
vn 0.3700 -0.7134 0.5951
vn 0.4991 0.3263 0.8028
vn 0.3502 -0.8861 0.3036
vn -0.0874 0.8781 -0.4704
vn -0.1015 -0.8313 -0.5465
vn 0.4334 0.0660 -0.8988
vn -0.1500 -0.8297 -0.5377
vn -0.2059 0.6740 -0.7095
vn -0.3412 0.2396 -0.9090
vn -0.6139 0.7894 0.0000
vn -0.3863 -0.9224 0.0000
vn -0.3042 -0.9366 0.1738
vn 0.1500 0.7284 0.6685
vn 0.1115 0.7937 0.5980
vn -0.0051 -0.8513 0.5247
vn -0.1894 -0.5969 0.7796
vn -0.1083 -0.8369 0.5366
vn 0.1225 -0.9893 0.0793
vn -0.2074 -0.6822 -0.7012
vn 0.0903 -0.9847 -0.1491
vn 0.1310 -0.9442 -0.3023
vn -0.0986 -0.9918 0.0816
vn -0.0610 -0.9981 0.0000
vn -0.0243 -0.9997 0.0000
vn 0.0156 -0.8621 -0.5065
vn -0.0349 -0.9893 -0.1414
vn -0.0862 -0.9789 -0.1851
vn -0.0983 -0.9202 0.3789
vn 0.1365 0.9328 0.3335
vn 0.0441 -0.9961 0.0769
vn -0.0570 -0.9576 -0.2822
vn 0.0213 -0.9932 -0.1145
vn 0.4934 0.2969 0.8176
vn 0.0138 -0.5840 0.8116
vn -0.2319 -0.6014 0.7645
vn -0.1297 -0.8535 -0.5047
vn 0.1745 0.8073 0.5637
vn -0.0856 -0.9016 -0.4241
vn -0.3712 0.6974 -0.6130
vn -0.1212 0.9456 0.3019
vn 0.3773 -0.0444 0.9250
vn 0.0724 0.9956 -0.0599
vn -0.0119 0.8481 -0.5297
vn -0.1214 0.9892 -0.0818
vn 0.0570 0.9543 -0.2935
vn 0.0966 0.8513 -0.5158
vn 0.1906 0.5342 -0.8236
vn 0.0113 0.9804 -0.1969
vn 0.0183 0.9480 -0.3177
vn -0.0368 0.9749 -0.2194
vn -0.0490 -0.9873 0.1512
vn 0.0115 0.9851 0.1714
vn 0.0233 0.9119 0.4097
vn 0.0090 0.8473 0.5311
vn -0.0386 0.9967 0.0709
vn -0.0860 0.9837 0.1581
vn 0.2587 0.5744 0.7766
vn -0.3508 0.8903 -0.2902
vn -0.4941 -0.3003 -0.8159
vn 0.1279 0.8521 -0.5075
vn -0.0078 0.6017 -0.7987
vn -0.0926 0.8839 -0.4585
vn 0.3102 0.9288 -0.2025
vn -0.4425 -0.0957 0.8916
vn 0.3539 -0.3248 0.8771
vn 0.1942 -0.7321 0.6529
vn 0.0195 0.6275 0.7784
vn -0.4046 0.0194 0.9143
vn 0.1083 0.8368 0.5366
vn 0.2466 0.6180 0.7465
vn 0.0678 0.9216 -0.3821
vn 0.0749 -0.9034 -0.4222
vn -0.0117 -0.6022 -0.7983
vn 0.3700 -0.7134 -0.5951
vn 0.4991 0.3263 -0.8028
vn 0.3502 -0.8861 -0.3036
vn -0.0874 0.8781 0.4704
vn -0.1015 -0.8313 0.5465
vn 0.4334 0.0660 0.8988
vn -0.1500 -0.8297 0.5377
vn -0.2059 0.6740 0.7095
vn -0.3412 0.2396 0.9090
vn -0.3042 -0.9366 -0.1738
vn 0.1500 0.7284 -0.6685
vn 0.1115 0.7937 -0.5980
vn -0.0051 -0.8513 -0.5247
vn -0.1894 -0.5969 -0.7796
vn -0.1083 -0.8369 -0.5366
vn 0.1225 -0.9893 -0.0793
vn -0.2074 -0.6822 0.7012
vn 0.0903 -0.9847 0.1491
vn 0.1310 -0.9442 0.3023
vn -0.0986 -0.9918 -0.0816
vn 0.0156 -0.8621 0.5065
vn -0.0349 -0.9893 0.1414
vn -0.0862 -0.9789 0.1851
g Icosphere_Icosphere.001_Material
usemtl Material
s off
f 1/1/1 14/2/1 13/3/1
f 2/4/2 14/5/2 16/6/2
f 1/7/3 13/8/3 18/9/3
f 1/10/4 18/11/4 20/12/4
f 1/10/5 20/12/5 17/13/5
f 2/4/6 16/6/6 23/14/6
f 3/15/7 15/16/7 25/17/7
f 4/18/8 19/19/8 27/20/8
f 5/21/9 21/22/9 29/23/9
f 6/24/10 22/25/10 31/26/10
f 2/27/11 23/28/11 26/29/11
f 3/30/12 25/31/12 28/32/12
f 4/33/13 27/34/13 30/35/13
f 5/36/14 29/37/14 32/38/14
f 6/39/15 31/40/15 24/41/15
f 7/42/16 33/43/16 38/44/16
f 8/45/17 34/46/17 40/47/17
f 9/48/18 35/49/18 41/50/18
f 10/51/19 36/52/19 42/53/19
f 11/54/20 37/55/20 39/56/20
f 39/57/21 42/53/21 12/58/21
f 39/59/22 37/60/22 42/61/22
f 37/60/23 10/62/23 42/61/23
f 42/53/24 41/63/24 12/58/24
f 42/53/25 36/52/25 41/63/25
f 36/52/26 9/64/26 41/63/26
f 41/65/27 40/66/27 12/67/27
f 41/65/28 35/68/28 40/66/28
f 35/69/29 8/70/29 40/71/29
f 40/66/30 38/72/30 12/67/30
f 40/66/31 34/73/31 38/72/31
f 34/73/32 7/74/32 38/72/32
f 38/72/33 39/75/33 12/67/33
f 38/44/34 33/43/34 39/76/34
f 33/77/35 11/78/35 39/79/35
f 24/41/36 37/55/36 11/54/36
f 24/41/37 31/40/37 37/55/37
f 31/80/38 10/62/38 37/60/38
f 32/81/39 36/52/39 10/51/39
f 32/81/40 29/82/40 36/52/40
f 29/82/40 9/64/40 36/52/40
f 30/35/41 35/49/41 9/48/41
f 30/35/42 27/34/42 35/49/42
f 27/20/43 8/83/43 35/84/43
f 28/32/44 34/46/44 8/45/44
f 28/32/45 25/31/45 34/46/45
f 25/85/46 7/74/46 34/73/46
f 26/86/47 33/43/47 7/42/47
f 26/87/48 23/88/48 33/89/48
f 23/90/49 11/78/49 33/77/49
f 31/91/50 32/81/50 10/51/50
f 31/92/51 22/93/51 32/38/51
f 22/93/52 5/36/52 32/38/52
f 29/94/53 30/35/53 9/48/53
f 29/94/54 21/95/54 30/35/54
f 21/95/55 4/33/55 30/35/55
f 27/20/56 28/96/56 8/83/56
f 27/20/57 19/19/57 28/96/57
f 19/97/58 3/30/58 28/32/58
f 25/98/59 26/86/59 7/42/59
f 25/98/60 15/99/60 26/86/60
f 15/99/61 2/100/61 26/86/61
f 23/101/62 24/41/62 11/54/62
f 23/101/63 16/102/63 24/41/63
f 16/102/64 6/39/64 24/41/64
f 17/103/65 22/25/65 6/24/65
f 17/103/66 20/104/66 22/25/66
f 20/105/67 5/36/67 22/93/67
f 20/106/68 21/22/68 5/21/68
f 20/12/69 18/11/69 21/107/69
f 18/108/70 4/33/70 21/95/70
f 18/109/71 19/19/71 4/18/71
f 18/110/72 13/111/72 19/97/72
f 13/111/73 3/30/73 19/97/73
f 16/102/74 17/112/74 6/39/74
f 16/102/75 14/113/75 17/112/75
f 14/114/76 1/10/76 17/13/76
f 13/115/77 15/16/77 3/15/77
f 13/115/78 14/116/78 15/16/78
f 14/117/79 2/100/79 15/99/79
f 43/118/80 55/119/80 56/120/80
f 44/121/81 58/122/81 56/123/81
f 43/124/82 60/125/82 55/126/82
f 43/127/83 62/128/83 60/129/83
f 43/127/84 59/130/84 62/128/84
f 44/121/85 65/131/85 58/122/85
f 45/132/86 67/133/86 57/134/86
f 46/135/87 69/136/87 61/137/87
f 47/138/88 71/139/88 63/140/88
f 48/141/11 73/142/11 64/143/11
f 44/144/10 68/145/10 65/146/10
f 45/147/89 70/148/89 67/149/89
f 46/150/13 72/151/13 69/152/13
f 47/153/90 74/154/90 71/155/90
f 48/156/91 66/157/91 73/158/91
f 49/159/92 80/160/92 75/161/92
f 50/162/93 82/163/93 76/164/93
f 51/165/94 83/166/94 77/167/94
f 52/168/95 84/169/95 78/170/95
f 53/171/96 81/172/96 79/173/96
f 81/174/97 54/175/97 84/169/97
f 81/176/98 84/177/98 79/178/98
f 79/178/99 84/177/99 52/179/99
f 84/169/100 54/175/100 83/180/100
f 84/169/101 83/180/101 78/170/101
f 78/170/102 83/180/102 51/181/102
f 83/182/27 54/183/27 82/184/27
f 83/182/28 82/184/28 77/185/28
f 77/186/103 82/187/103 50/188/103
f 82/184/104 54/183/104 80/189/104
f 82/184/105 80/189/105 76/190/105
f 76/190/106 80/189/106 49/191/106
f 80/189/107 54/183/107 81/192/107
f 80/160/108 81/193/108 75/161/108
f 75/194/109 81/195/109 53/196/109
f 66/157/110 53/171/110 79/173/110
f 66/157/111 79/173/111 73/158/111
f 73/197/112 79/178/112 52/179/112
f 74/198/113 52/168/113 78/170/113
f 74/198/114 78/170/114 71/199/114
f 71/199/114 78/170/114 51/181/114
f 72/151/115 51/165/115 77/167/115
f 72/151/42 77/167/42 69/152/42
f 69/136/116 77/200/116 50/201/116
f 70/148/117 50/162/117 76/164/117
f 70/148/118 76/164/118 67/149/118
f 67/202/119 76/190/119 49/191/119
f 68/203/120 49/159/120 75/161/120
f 68/204/121 75/205/121 65/206/121
f 65/207/122 75/194/122 53/196/122
f 73/208/123 52/168/123 74/198/123
f 73/209/124 74/154/124 64/210/124
f 64/210/125 74/154/125 47/153/125
f 71/211/126 51/165/126 72/151/126
f 71/211/127 72/151/127 63/212/127
f 63/212/128 72/151/128 46/150/128
f 69/136/129 50/201/129 70/213/129
f 69/136/130 70/213/130 61/137/130
f 61/214/131 70/148/131 45/147/131
f 67/215/132 49/159/132 68/203/132
f 67/215/133 68/203/133 57/216/133
f 57/216/134 68/203/134 44/217/134
f 65/218/62 53/171/62 66/157/62
f 65/218/63 66/157/63 58/219/63
f 58/219/135 66/157/135 48/156/135
f 59/220/136 48/141/136 64/143/136
f 59/220/137 64/143/137 62/221/137
f 62/222/138 64/210/138 47/153/138
f 62/223/139 47/138/139 63/140/139
f 62/128/140 63/224/140 60/129/140
f 60/225/141 63/212/141 46/150/141
f 60/226/142 46/135/142 61/137/142
f 60/227/143 61/214/143 55/228/143
f 55/228/144 61/214/144 45/147/144
f 58/219/145 48/156/145 59/229/145
f 58/219/75 59/229/75 56/230/75
f 56/231/76 59/130/76 43/127/76
f 55/232/146 45/132/146 57/134/146
f 55/232/147 57/134/147 56/233/147
f 56/234/148 57/216/148 44/217/148
