# Blender v2.79 (sub 0) OBJ File: 'shooter_arrows.blend'
# www.blender.org
mtllib shooter_arrows.mtl
v 3.000000 -0.187500 -0.187500
v 3.000000 -0.187500 0.187500
v -2.625000 -0.187500 0.187500
v -2.625000 -0.187500 -0.187500
v 3.000001 0.187500 -0.187500
v 3.000000 0.187500 0.187501
v -2.625000 0.187500 0.187500
v -2.625000 0.187500 -0.187500
v -2.250000 -0.187500 -0.187500
v -2.250000 -0.187500 0.187500
v -2.250000 0.187500 -0.187500
v -2.250000 0.187500 0.187500
v -1.875000 -0.187500 -0.187500
v -1.875000 -0.187500 0.187500
v -1.875000 0.187500 -0.187500
v -1.875000 0.187500 0.187501
v -1.500000 -0.187500 -0.187500
v -1.500000 -0.187500 0.187500
v -1.499999 0.187500 -0.187500
v -1.500000 0.187500 0.187500
v -2.250000 0.562500 -0.187500
v -2.250000 0.562500 0.187500
v -1.875000 0.562500 -0.187500
v -1.875000 0.562500 0.187501
v -2.250000 -0.562500 -0.187500
v -2.250000 -0.562500 0.187500
v -1.875000 -0.562500 -0.187500
v -1.875000 -0.562500 0.187500
v -3.000000 0.187500 -0.187500
v -3.000000 0.187500 0.187500
v -3.000000 0.562500 0.187500
v -3.000000 0.562500 -0.187500
v -2.625000 0.562500 -0.187500
v -2.625000 0.562500 0.187500
v -3.000000 -0.562500 -0.187500
v -3.000000 -0.562500 0.187500
v -3.000000 -0.187500 0.187500
v -3.000000 -0.187500 -0.187500
v -2.625000 -0.562500 -0.187500
v -2.625000 -0.562500 0.187500
v -2.625000 -0.187500 0.562500
v -2.625000 0.187500 0.562500
v -2.250000 -0.187500 0.562500
v -2.250000 0.187500 0.562500
v -1.875000 -0.187500 0.562500
v -1.875000 0.187500 0.562500
v -1.500000 -0.187500 0.562500
v -1.500000 0.187500 0.562500
v -1.875000 -0.187500 -0.562500
v -1.875000 0.187500 -0.562500
v -1.500000 -0.187500 -0.562500
v -1.499999 0.187500 -0.562500
v -2.625000 -0.187500 -0.562500
v -2.625000 0.187500 -0.562500
v -2.250000 -0.187500 -0.562500
v -2.250000 0.187500 -0.562499
v 2.625000 -0.187500 -0.187500
v 2.625000 -0.187500 0.187500
v 2.625001 0.187500 -0.187500
v 2.625000 0.187500 0.187500
v 2.250000 -0.187500 -0.187500
v 2.250000 -0.187500 0.187500
v 2.250001 0.187500 -0.187500
v 2.250000 0.187500 0.187500
v 2.625001 0.562500 -0.187500
v 2.625000 0.562500 0.187500
v 2.250001 0.562500 -0.187500
v 2.250000 0.562500 0.187500
v 2.625000 -0.562500 -0.187500
v 2.625000 -0.562500 0.187500
v 2.250000 -0.562500 -0.187500
v 2.250000 -0.562500 0.187500
vt 0.125000 0.062500
vt 0.125000 0.125000
vt 0.062500 0.125000
vt 0.062500 0.062500
vt 0.125000 0.312500
vt 0.062500 0.312500
vt 0.062500 0.250000
vt 0.125000 0.250000
vt 0.937500 0.625000
vt 0.937500 0.687500
vt 0.875000 0.687500
vt 0.875000 0.625000
vt 0.250000 0.625000
vt 0.250000 0.687500
vt 0.187500 0.687500
vt 0.187500 0.625000
vt 0.125000 0.625000
vt 0.125000 0.687500
vt 0.062500 0.687500
vt 0.062500 0.625000
vt 0.250000 0.625000
vt 0.250000 0.687500
vt 0.187500 0.687500
vt 0.187500 0.625000
vt 0.187500 0.437500
vt 0.125000 0.437500
vt 0.125000 0.375000
vt 0.187500 0.375000
vt 0.125000 0.500000
vt 0.187500 0.500000
vt 0.187500 0.562500
vt 0.125000 0.562500
vt 0.187500 0.500000
vt 0.187500 0.437500
vt 0.125000 0.437500
vt 0.125000 0.500000
vt 0.250000 0.062500
vt 0.250000 0.125000
vt 0.187500 0.125000
vt 0.187500 0.062500
vt 0.250000 0.312500
vt 0.187500 0.312500
vt 0.187500 0.250000
vt 0.250000 0.250000
vt 0.187500 0.187500
vt 0.250000 0.187500
vt 0.187500 0.000000
vt 0.250000 0.000000
vt 0.875000 0.062500
vt 0.875000 0.125000
vt 0.875000 0.312500
vt 0.875000 0.250000
vt 0.875000 0.437500
vt 0.875000 0.500000
vt 0.250000 0.500000
vt 0.250000 0.437500
vt 0.875000 0.500000
vt 0.875000 0.437500
vt 0.250000 0.437500
vt 0.250000 0.500000
vt 0.187500 0.312500
vt 0.125000 0.312500
vt 0.125000 0.250000
vt 0.187500 0.250000
vt 0.125000 0.562500
vt 0.187500 0.562500
vt 0.250000 0.687500
vt 0.312500 0.687500
vt 0.312500 0.750000
vt 0.250000 0.750000
vt 0.250000 0.687500
vt 0.312500 0.687500
vt 0.312500 0.750000
vt 0.250000 0.750000
vt 0.187500 0.062500
vt 0.187500 0.125000
vt 0.125000 0.125000
vt 0.125000 0.062500
vt 0.125000 0.625000
vt 0.062500 0.625000
vt 0.062500 0.562500
vt 0.125000 0.562500
vt 0.187500 0.375000
vt 0.125000 0.375000
vt 0.312500 0.625000
vt 0.250000 0.625000
vt 0.250000 0.562500
vt 0.312500 0.562500
vt 0.312500 0.750000
vt 0.250000 0.750000
vt 0.250000 0.687500
vt 0.312500 0.687500
vt 0.312500 0.625000
vt 0.250000 0.625000
vt 0.250000 0.562500
vt 0.312500 0.562500
vt 0.062500 0.375000
vt 0.000000 0.375000
vt 0.000000 0.437500
vt 0.062500 0.437500
vt 0.000000 0.250000
vt 0.062500 0.250000
vt 0.062500 0.312500
vt 0.000000 0.312500
vt 0.000000 0.062500
vt 0.062500 0.062500
vt 0.062500 0.125000
vt 0.000000 0.125000
vt 0.250000 0.625000
vt 0.250000 0.562500
vt 0.312500 0.562500
vt 0.312500 0.625000
vt 0.312500 0.750000
vt 0.312500 0.687500
vt 0.250000 0.687500
vt 0.250000 0.750000
vt 0.000000 0.125000
vt 0.062500 0.125000
vt 0.062500 0.062500
vt 0.000000 0.062500
vt 0.000000 0.375000
vt 0.062500 0.375000
vt 0.062500 0.437500
vt 0.000000 0.437500
vt 0.000000 0.562500
vt 0.000000 0.500000
vt 0.062500 0.500000
vt 0.062500 0.562500
vt 0.000000 0.312500
vt 0.000000 0.250000
vt 0.062500 0.250000
vt 0.062500 0.312500
vt 0.000000 0.500000
vt 0.000000 0.562500
vt 0.062500 0.562500
vt 0.062500 0.500000
vt 0.125000 0.437500
vt 0.125000 0.500000
vt 0.062500 0.500000
vt 0.062500 0.437500
vt 0.125000 0.187500
vt 0.062500 0.187500
vt 0.312500 0.687500
vt 0.312500 0.625000
vt 0.375000 0.625000
vt 0.375000 0.687500
vt 0.062500 0.187500
vt 0.125000 0.187500
vt 0.250000 0.437500
vt 0.250000 0.500000
vt 0.187500 0.500000
vt 0.187500 0.437500
vt 0.312500 0.687500
vt 0.312500 0.625000
vt 0.375000 0.625000
vt 0.375000 0.687500
vt 0.250000 0.625000
vt 0.250000 0.687500
vt 0.187500 0.687500
vt 0.187500 0.625000
vt 0.250000 0.187500
vt 0.187500 0.187500
vt 0.250000 0.500000
vt 0.250000 0.437500
vt 0.187500 0.437500
vt 0.187500 0.500000
vt 0.250000 0.625000
vt 0.250000 0.687500
vt 0.187500 0.687500
vt 0.187500 0.625000
vt 0.312500 0.687500
vt 0.312500 0.625000
vt 0.375000 0.625000
vt 0.375000 0.687500
vt 0.250000 0.375000
vt 0.187500 0.375000
vt 0.125000 0.500000
vt 0.125000 0.437500
vt 0.062500 0.437500
vt 0.062500 0.500000
vt 0.062500 0.000000
vt 0.125000 0.000000
vt 0.312500 0.687500
vt 0.312500 0.625000
vt 0.375000 0.625000
vt 0.375000 0.687500
vt 0.125000 0.375000
vt 0.062500 0.375000
vt 1.000000 0.062500
vt 1.000000 0.125000
vt 0.937500 0.125000
vt 0.937500 0.062500
vt 1.000000 0.312500
vt 0.937500 0.312500
vt 0.937500 0.250000
vt 1.000000 0.250000
vt 1.000000 0.437500
vt 1.000000 0.500000
vt 0.937500 0.500000
vt 0.937500 0.437500
vt 1.000000 0.500000
vt 1.000000 0.437500
vt 0.937500 0.437500
vt 0.937500 0.500000
vt 0.750000 0.625000
vt 0.687500 0.625000
vt 0.687500 0.562500
vt 0.750000 0.562500
vt 0.937500 0.562500
vt 0.875000 0.562500
vt 0.937500 0.312500
vt 0.875000 0.312500
vt 0.875000 0.250000
vt 0.937500 0.250000
vt 0.875000 0.562500
vt 0.937500 0.562500
vt 0.875000 0.687500
vt 0.937500 0.687500
vt 0.937500 0.750000
vt 0.875000 0.750000
vt 0.687500 0.687500
vt 0.750000 0.687500
vt 0.750000 0.750000
vt 0.687500 0.750000
vt 0.937500 0.062500
vt 0.937500 0.125000
vt 0.875000 0.125000
vt 0.875000 0.062500
vt 0.875000 0.375000
vt 0.937500 0.375000
vt 0.937500 0.625000
vt 0.875000 0.625000
vt 0.875000 0.562500
vt 0.937500 0.562500
vt 0.937500 0.375000
vt 0.875000 0.375000
vn 0.0000 -1.0000 0.0000
vn 0.0000 1.0000 0.0000
vn 1.0000 0.0000 0.0000
vn -1.0000 0.0000 0.0000
vn -0.0000 0.0000 1.0000
vn 0.0000 0.0000 -1.0000
g Arrow_Arrow_Material
usemtl Material
s off
f 9/1/1 10/2/1 3/3/1 4/4/1
f 11/5/2 8/6/2 7/7/2 12/8/2
f 1/9/3 5/10/3 6/11/3 2/12/3
f 10/13/3 12/14/3 44/15/3 43/16/3
f 3/17/4 7/18/4 8/19/4 4/20/4
f 4/21/4 8/22/4 54/23/4 53/24/4
f 14/25/5 10/26/5 26/27/5 28/28/5
f 12/29/5 16/30/5 24/31/5 22/32/5
f 14/25/5 16/30/5 12/29/5 10/26/5
f 15/33/6 13/34/6 9/35/6 11/36/6
f 17/37/1 18/38/1 14/39/1 13/40/1
f 19/41/2 15/42/2 16/43/2 20/44/2
f 20/44/2 16/43/2 46/45/2 48/46/2
f 17/37/1 13/40/1 49/47/1 51/48/1
f 61/49/1 62/50/1 18/38/1 17/37/1
f 63/51/2 19/41/2 20/44/2 64/52/2
f 62/53/5 64/54/5 20/55/5 18/56/5
f 63/57/6 61/58/6 17/59/6 19/60/6
f 23/61/2 21/62/2 22/63/2 24/64/2
f 15/33/6 11/36/6 21/65/6 23/66/6
f 11/67/4 12/68/4 22/69/4 21/70/4
f 16/71/3 15/72/3 23/73/3 24/74/3
f 27/75/1 28/76/1 26/77/1 25/78/1
f 10/79/4 9/80/4 25/81/4 26/82/4
f 9/35/6 13/34/6 27/83/6 25/84/6
f 13/85/3 14/86/3 28/87/3 27/88/3
f 31/89/4 32/90/4 29/91/4 30/92/4
f 37/93/4 38/94/4 35/95/4 36/96/4
f 39/97/6 35/98/6 38/99/6 4/100/6
f 37/101/2 3/102/2 4/103/2 38/104/2
f 35/105/1 39/106/1 40/107/1 36/108/1
f 3/109/3 40/110/3 39/111/3 4/112/3
f 33/113/4 8/114/4 7/115/4 34/116/4
f 29/117/1 8/118/1 7/119/1 30/120/1
f 36/121/5 40/122/5 3/123/5 37/124/5
f 31/125/5 30/126/5 7/127/5 34/128/5
f 32/129/2 31/130/2 34/131/2 33/132/2
f 29/133/6 32/134/6 33/135/6 8/136/6
f 43/137/5 44/138/5 42/139/5 41/140/5
f 3/3/1 10/2/1 43/141/1 41/142/1
f 7/143/4 3/144/4 41/145/4 42/146/4
f 12/8/2 7/7/2 42/147/2 44/148/2
f 47/149/5 48/150/5 46/151/5 45/152/5
f 16/153/4 14/154/4 45/155/4 46/156/4
f 18/157/3 20/158/3 48/159/3 47/160/3
f 14/39/1 18/38/1 47/161/1 45/162/1
f 52/163/6 51/164/6 49/165/6 50/166/6
f 13/167/4 15/168/4 50/169/4 49/170/4
f 19/171/3 17/172/3 51/173/3 52/174/3
f 15/42/2 19/41/2 52/175/2 50/176/2
f 56/177/6 55/178/6 53/179/6 54/180/6
f 9/1/1 4/4/1 53/181/1 55/182/1
f 11/183/3 9/184/3 55/185/3 56/186/3
f 8/6/2 11/5/2 56/187/2 54/188/2
f 1/189/1 2/190/1 58/191/1 57/192/1
f 5/193/2 59/194/2 60/195/2 6/196/2
f 2/197/5 6/198/5 60/199/5 58/200/5
f 5/201/6 1/202/6 57/203/6 59/204/6
f 62/205/4 61/206/4 71/207/4 72/208/4
f 64/54/5 60/199/5 66/209/5 68/210/5
f 58/200/5 60/199/5 64/54/5 62/53/5
f 59/204/6 57/203/6 61/58/6 63/57/6
f 65/211/2 67/212/2 68/213/2 66/214/2
f 59/204/6 63/57/6 67/215/6 65/216/6
f 60/217/3 59/218/3 65/219/3 66/220/3
f 63/221/4 64/222/4 68/223/4 67/224/4
f 69/225/1 70/226/1 72/227/1 71/228/1
f 58/200/5 62/53/5 72/229/5 70/230/5
f 57/231/3 58/232/3 70/233/3 69/234/3
f 61/58/6 57/203/6 69/235/6 71/236/6
